# xmcd CD database file
# Copyright (C) 1993-1998 Ti Kan
# 
# Track frame offsets:
#     183
#     15318
#     27385
#     39980
#     53638
#     65135
#     79703
#     92135
#     107863
#     118765
#     130680
#     154203
#     167350
#     182343
#     194650
#     208255
#     223375
#     234173
#     250890
#     262050
# 
# Disc length: 3647 seconds
# 
# Revision: 1
# Processed by: cddbd v1.4b41PL1 Copyright (c) Steve Scherf et al.
# Submitted via: DiscPlay 4.0.4
# 
DISCID=190e3d14
DTITLE=International Symphony Orchestra - Rogers and Hammerstein * Jerome Kern
DYEAR=1900
DGENRE=
TTITLE0=The Sound of Music
TTITLE1=It Might As Well Be Spring
TTITLE2=Oh What A Beautiful Morning
TTITLE3=You Are Beautiful
TTITLE4=June Is Bustin' Out All Over
TTITLE5=Some Enchanted Evening
TTITLE6=Love Look Away
TTITLE7=Hello Young Lovers
TTITLE8=A Good Night For Singing
TTITLE9=I Have Dreamed
TTITLE10=The Night Was Made For Music
TTITLE11=The Way You Look Tonight
TTITLE12=The Song Is You
TTITLE13=Long Ago
TTITLE14=The Last Time I Saw Paris
TTITLE15=Look For the Silver Lining
TTITLE16=Smoke Gets In Your Eyes
TTITLE17=All The Things You Are
TTITLE18=They Didn't Believe Me
TTITLE19=I've Told Ecery Little Star
EXTD=
EXTT0=
EXTT1=
EXTT2=
EXTT3=
EXTT4=
EXTT5=
EXTT6=
EXTT7=
EXTT8=
EXTT9=
EXTT10=
EXTT11=
EXTT12=
EXTT13=
EXTT14=
EXTT15=
EXTT16=
EXTT17=
EXTT18=
EXTT19=
PLAYORDER=
